<mxfile host="Electron" agent="Mozilla/5.0 (Windows NT 10.0; Win64; x64) AppleWebKit/537.36 (KHTML, like Gecko) draw.io/24.7.17 Chrome/128.0.6613.36 Electron/32.0.1 Safari/537.36" version="24.7.17">
  <diagram name="Page-1" id="sZ2jYWhIf5V467-SxP9Y">
    <mxGraphModel dx="915" dy="690" grid="1" gridSize="10" guides="1" tooltips="1" connect="1" arrows="1" fold="1" page="1" pageScale="1" pageWidth="850" pageHeight="1100" math="0" shadow="0">
      <root>
        <mxCell id="0" />
        <mxCell id="1" parent="0" />
        <mxCell id="SYHLoigSp2c_G1k-SftJ-78" style="edgeStyle=orthogonalEdgeStyle;rounded=0;orthogonalLoop=1;jettySize=auto;html=1;entryX=0.5;entryY=0;entryDx=0;entryDy=0;" edge="1" parent="1" source="SYHLoigSp2c_G1k-SftJ-1" target="SYHLoigSp2c_G1k-SftJ-77">
          <mxGeometry relative="1" as="geometry" />
        </mxCell>
        <mxCell id="SYHLoigSp2c_G1k-SftJ-1" value="START" style="ellipse;whiteSpace=wrap;html=1;" vertex="1" parent="1">
          <mxGeometry x="365" y="170" width="120" height="80" as="geometry" />
        </mxCell>
        <mxCell id="SYHLoigSp2c_G1k-SftJ-14" value="END" style="ellipse;whiteSpace=wrap;html=1;" vertex="1" parent="1">
          <mxGeometry x="365" y="680" width="120" height="80" as="geometry" />
        </mxCell>
        <mxCell id="SYHLoigSp2c_G1k-SftJ-80" style="edgeStyle=orthogonalEdgeStyle;rounded=0;orthogonalLoop=1;jettySize=auto;html=1;entryX=0.5;entryY=0;entryDx=0;entryDy=0;" edge="1" parent="1" source="SYHLoigSp2c_G1k-SftJ-77" target="SYHLoigSp2c_G1k-SftJ-79">
          <mxGeometry relative="1" as="geometry" />
        </mxCell>
        <mxCell id="SYHLoigSp2c_G1k-SftJ-77" value="a,b" style="shape=parallelogram;perimeter=parallelogramPerimeter;whiteSpace=wrap;html=1;fixedSize=1;" vertex="1" parent="1">
          <mxGeometry x="365" y="310" width="120" height="60" as="geometry" />
        </mxCell>
        <mxCell id="SYHLoigSp2c_G1k-SftJ-82" style="edgeStyle=orthogonalEdgeStyle;rounded=0;orthogonalLoop=1;jettySize=auto;html=1;entryX=0;entryY=0.5;entryDx=0;entryDy=0;" edge="1" parent="1" source="SYHLoigSp2c_G1k-SftJ-79" target="SYHLoigSp2c_G1k-SftJ-81">
          <mxGeometry relative="1" as="geometry" />
        </mxCell>
        <mxCell id="SYHLoigSp2c_G1k-SftJ-85" style="edgeStyle=orthogonalEdgeStyle;rounded=0;orthogonalLoop=1;jettySize=auto;html=1;" edge="1" parent="1" source="SYHLoigSp2c_G1k-SftJ-79" target="SYHLoigSp2c_G1k-SftJ-84">
          <mxGeometry relative="1" as="geometry" />
        </mxCell>
        <mxCell id="SYHLoigSp2c_G1k-SftJ-79" value="a=0?" style="rhombus;whiteSpace=wrap;html=1;" vertex="1" parent="1">
          <mxGeometry x="385" y="410" width="80" height="80" as="geometry" />
        </mxCell>
        <mxCell id="SYHLoigSp2c_G1k-SftJ-89" style="edgeStyle=orthogonalEdgeStyle;rounded=0;orthogonalLoop=1;jettySize=auto;html=1;" edge="1" parent="1" source="SYHLoigSp2c_G1k-SftJ-81" target="SYHLoigSp2c_G1k-SftJ-88">
          <mxGeometry relative="1" as="geometry" />
        </mxCell>
        <mxCell id="SYHLoigSp2c_G1k-SftJ-90" style="edgeStyle=orthogonalEdgeStyle;rounded=0;orthogonalLoop=1;jettySize=auto;html=1;entryX=0.5;entryY=0;entryDx=0;entryDy=0;" edge="1" parent="1" source="SYHLoigSp2c_G1k-SftJ-81" target="SYHLoigSp2c_G1k-SftJ-87">
          <mxGeometry relative="1" as="geometry" />
        </mxCell>
        <mxCell id="SYHLoigSp2c_G1k-SftJ-81" value="b=0?" style="rhombus;whiteSpace=wrap;html=1;" vertex="1" parent="1">
          <mxGeometry x="610" y="480" width="80" height="80" as="geometry" />
        </mxCell>
        <mxCell id="SYHLoigSp2c_G1k-SftJ-83" value="YES" style="text;html=1;align=center;verticalAlign=middle;resizable=0;points=[];autosize=1;strokeColor=none;fillColor=none;" vertex="1" parent="1">
          <mxGeometry x="495" y="418" width="50" height="30" as="geometry" />
        </mxCell>
        <mxCell id="SYHLoigSp2c_G1k-SftJ-96" style="edgeStyle=orthogonalEdgeStyle;rounded=0;orthogonalLoop=1;jettySize=auto;html=1;" edge="1" parent="1" source="SYHLoigSp2c_G1k-SftJ-84" target="SYHLoigSp2c_G1k-SftJ-14">
          <mxGeometry relative="1" as="geometry">
            <Array as="points">
              <mxPoint x="180" y="720" />
            </Array>
          </mxGeometry>
        </mxCell>
        <mxCell id="SYHLoigSp2c_G1k-SftJ-84" value="x=-b/a" style="shape=parallelogram;perimeter=parallelogramPerimeter;whiteSpace=wrap;html=1;fixedSize=1;" vertex="1" parent="1">
          <mxGeometry x="120" y="420" width="120" height="60" as="geometry" />
        </mxCell>
        <mxCell id="SYHLoigSp2c_G1k-SftJ-86" value="NO" style="text;html=1;align=center;verticalAlign=middle;resizable=0;points=[];autosize=1;strokeColor=none;fillColor=none;" vertex="1" parent="1">
          <mxGeometry x="280" y="418" width="40" height="30" as="geometry" />
        </mxCell>
        <mxCell id="SYHLoigSp2c_G1k-SftJ-95" style="edgeStyle=orthogonalEdgeStyle;rounded=0;orthogonalLoop=1;jettySize=auto;html=1;" edge="1" parent="1" source="SYHLoigSp2c_G1k-SftJ-87">
          <mxGeometry relative="1" as="geometry">
            <mxPoint x="650" y="720" as="targetPoint" />
          </mxGeometry>
        </mxCell>
        <mxCell id="SYHLoigSp2c_G1k-SftJ-87" value="Phương trình có vô số nghiệm" style="shape=parallelogram;perimeter=parallelogramPerimeter;whiteSpace=wrap;html=1;fixedSize=1;" vertex="1" parent="1">
          <mxGeometry x="570" y="620" width="160" height="70" as="geometry" />
        </mxCell>
        <mxCell id="SYHLoigSp2c_G1k-SftJ-94" style="edgeStyle=orthogonalEdgeStyle;rounded=0;orthogonalLoop=1;jettySize=auto;html=1;entryX=1;entryY=0.5;entryDx=0;entryDy=0;" edge="1" parent="1" source="SYHLoigSp2c_G1k-SftJ-88" target="SYHLoigSp2c_G1k-SftJ-14">
          <mxGeometry relative="1" as="geometry">
            <Array as="points">
              <mxPoint x="850" y="720" />
            </Array>
          </mxGeometry>
        </mxCell>
        <mxCell id="SYHLoigSp2c_G1k-SftJ-88" value="Phương trình vô nghiệm" style="shape=parallelogram;perimeter=parallelogramPerimeter;whiteSpace=wrap;html=1;fixedSize=1;" vertex="1" parent="1">
          <mxGeometry x="790" y="490" width="120" height="60" as="geometry" />
        </mxCell>
        <mxCell id="SYHLoigSp2c_G1k-SftJ-91" value="NO" style="text;html=1;align=center;verticalAlign=middle;resizable=0;points=[];autosize=1;strokeColor=none;fillColor=none;" vertex="1" parent="1">
          <mxGeometry x="730" y="480" width="40" height="30" as="geometry" />
        </mxCell>
        <mxCell id="SYHLoigSp2c_G1k-SftJ-92" value="YES" style="text;html=1;align=center;verticalAlign=middle;resizable=0;points=[];autosize=1;strokeColor=none;fillColor=none;" vertex="1" parent="1">
          <mxGeometry x="600" y="560" width="50" height="30" as="geometry" />
        </mxCell>
      </root>
    </mxGraphModel>
  </diagram>
</mxfile>
